<?xml version="1.0" encoding="UTF-8" ?>
<!DOCTYPE svg PUBLIC "-//W3C//DTD SVG 1.1//EN" "http://www.w3.org/Graphics/SVG/1.1/DTD/svg11.dtd">
<svg width="800pt" height="500pt" viewBox="0 0 800 500" version="1.1" xmlns="http://www.w3.org/2000/svg">
<path fill="#ffffff" d=" M 0.00 0.00 L 800.00 0.00 L 800.00 500.00 L 0.00 500.00 L 0.00 0.00 Z" />
<path fill="#547896" d=" M 602.13 23.33 C 622.47 22.79 642.97 22.28 663.14 25.49 C 683.92 27.66 704.00 33.90 723.52 41.07 L 723.83 41.31 C 725.47 42.74 727.42 43.75 729.45 44.54 C 736.16 47.21 742.72 50.29 748.87 54.10 C 756.88 58.80 765.09 63.36 771.83 69.84 C 767.94 78.27 762.81 86.04 757.81 93.83 L 757.02 95.01 C 752.44 93.65 748.54 90.83 744.41 88.55 C 738.51 85.02 732.07 82.58 725.39 81.05 C 713.68 76.78 699.93 78.33 689.76 85.66 C 679.10 93.51 671.44 104.65 665.12 116.13 C 656.45 132.56 650.98 150.44 646.45 168.38 C 643.74 182.40 640.53 196.41 639.71 210.71 C 638.16 226.44 637.42 242.24 637.58 258.04 C 639.12 295.63 643.62 333.77 658.04 368.83 C 664.35 384.30 672.50 399.53 684.95 410.95 C 690.13 415.73 696.31 420.11 703.55 420.71 C 713.48 423.31 724.45 422.36 733.66 417.75 C 740.30 414.63 746.34 410.47 752.38 406.35 C 753.88 405.53 755.51 404.08 757.35 404.75 C 758.60 405.62 759.43 406.95 760.31 408.19 C 764.10 413.94 767.86 419.72 771.60 425.50 C 772.85 427.71 774.54 430.46 773.21 433.02 C 771.55 435.70 768.79 437.43 766.34 439.32 C 737.66 460.95 702.57 473.42 666.91 476.67 C 654.27 477.40 641.61 476.74 628.96 476.95 C 620.59 477.18 612.25 475.52 603.90 476.53 C 586.50 474.21 569.06 470.85 552.60 464.56 C 543.71 461.34 534.82 458.04 526.52 453.47 C 509.61 443.38 493.31 431.89 480.07 417.18 C 477.89 414.96 475.73 412.71 473.55 410.50 C 470.09 421.43 467.08 432.50 463.53 443.40 C 460.68 453.00 457.86 463.32 450.47 470.54 C 446.90 474.26 442.21 477.22 437.04 477.91 C 420.83 478.34 404.57 477.29 388.38 478.47 C 382.59 477.74 376.82 475.51 372.87 471.05 C 368.12 466.37 365.82 459.97 364.07 453.68 C 346.92 398.67 330.29 343.49 313.01 288.51 C 311.51 283.89 310.21 279.20 308.61 274.61 C 306.21 280.91 304.86 287.54 302.92 293.99 C 288.49 344.90 274.17 395.84 259.74 446.74 C 257.67 453.65 255.39 460.58 251.82 466.89 C 248.42 472.97 241.74 476.65 235.06 477.88 C 217.05 478.36 198.99 477.31 181.00 478.44 C 173.19 477.38 165.54 473.38 161.47 466.43 C 155.35 456.24 152.34 444.61 148.50 433.46 C 107.43 318.14 66.36 202.81 25.31 87.47 C 23.41 82.02 21.21 76.63 20.05 70.96 C 18.98 64.74 20.15 57.47 25.09 53.12 C 29.66 49.01 36.04 47.72 42.02 47.72 C 81.68 47.78 121.35 47.74 161.01 47.74 C 168.63 47.53 176.33 48.09 183.68 50.20 C 189.01 52.60 193.73 56.70 195.78 62.31 C 200.62 74.70 203.64 87.70 207.47 100.41 C 222.24 145.39 236.86 190.42 251.54 235.43 C 254.57 244.06 256.72 253.02 260.64 261.31 C 261.52 258.25 262.32 255.16 263.05 252.06 C 265.26 246.29 266.64 240.25 268.31 234.32 C 272.51 218.93 276.87 203.58 281.20 188.23 C 282.04 185.97 281.27 183.64 280.57 181.47 C 269.81 147.40 259.26 113.27 248.69 79.15 C 246.42 72.11 245.43 63.98 248.94 57.17 C 252.16 51.14 259.32 48.18 265.92 48.26 C 309.27 48.25 352.62 48.26 395.97 48.26 C 402.13 48.06 408.07 49.78 414.02 51.07 L 414.15 51.31 C 414.31 51.59 414.63 52.14 414.78 52.42 C 416.79 54.66 419.28 56.51 420.83 59.13 C 423.63 63.71 424.58 69.06 425.91 74.18 C 432.07 97.26 438.06 120.39 444.16 143.48 C 445.88 140.05 447.34 136.50 448.75 132.93 C 451.98 126.10 454.56 118.95 458.45 112.44 C 466.06 98.94 475.36 86.37 486.18 75.26 C 500.25 61.73 516.22 50.03 533.92 41.69 C 555.26 31.41 578.54 25.28 602.13 23.33 Z" />
<path fill="#404040" d=" M 723.83 41.31 C 742.87 47.95 760.96 57.63 776.61 70.42 C 778.12 71.62 779.11 73.87 777.89 75.63 C 774.02 82.99 769.51 90.02 765.00 97.00 C 762.45 96.29 760.06 95.17 757.81 93.83 C 762.81 86.04 767.94 78.27 771.83 69.84 C 765.09 63.36 756.88 58.80 748.87 54.10 C 742.72 50.29 736.16 47.21 729.45 44.54 C 727.42 43.75 725.47 42.74 723.83 41.31 Z" />
<path fill="#404040" d=" M 183.68 50.20 C 189.99 51.94 197.76 53.60 200.98 60.00 C 204.39 66.70 206.23 74.04 208.69 81.12 C 220.02 117.69 232.03 154.05 243.51 190.57 C 250.04 211.06 256.48 231.58 263.05 252.06 C 262.32 255.16 261.52 258.25 260.64 261.31 C 256.72 253.02 254.57 244.06 251.54 235.43 C 236.86 190.42 222.24 145.39 207.47 100.41 C 203.64 87.70 200.62 74.70 195.78 62.31 C 193.73 56.70 189.01 52.60 183.68 50.20 Z" />
<path fill="#404040" d=" M 414.78 52.42 C 414.63 52.14 414.31 51.59 414.15 51.31 C 418.28 52.65 422.56 54.16 425.74 57.26 C 428.68 60.20 430.74 63.99 431.82 68.00 C 437.44 89.65 443.11 111.28 448.75 132.93 C 447.34 136.50 445.88 140.05 444.16 143.48 C 438.06 120.39 432.07 97.26 425.91 74.18 C 424.58 69.06 423.63 63.71 420.83 59.13 C 419.28 56.51 416.79 54.66 414.78 52.42 Z" />
<path fill="#ffffff" d=" M 55.00 103.68 C 76.22 89.59 97.75 75.95 119.11 62.06 C 120.09 64.63 121.09 67.20 121.98 69.81 C 103.63 81.06 85.28 92.33 66.82 103.37 C 88.19 99.68 109.80 97.52 131.25 94.30 C 132.43 97.33 133.61 100.36 134.82 103.38 C 121.56 112.88 107.33 120.87 93.42 129.37 C 88.75 132.36 83.69 134.68 78.92 137.51 C 80.62 137.56 82.34 137.54 84.03 137.31 C 103.45 134.18 123.06 132.34 142.50 129.37 C 143.59 132.02 144.59 134.75 144.93 137.61 C 139.95 137.59 135.02 138.45 130.08 138.94 C 112.16 140.86 94.20 142.38 76.32 144.61 C 73.95 144.74 71.58 144.75 69.21 144.78 C 68.33 142.12 67.56 139.41 67.26 136.61 C 71.15 134.84 74.68 132.41 78.36 130.26 C 93.72 120.92 109.48 112.21 124.22 101.90 C 109.90 104.38 95.47 106.13 81.07 108.11 C 73.43 109.01 65.85 110.40 58.17 110.97 C 57.05 108.57 56.08 106.10 55.00 103.68 Z" />
<path fill="#404040" d=" M 689.76 85.66 C 699.93 78.33 713.68 76.78 725.39 81.05 C 714.57 79.53 703.19 82.67 694.92 89.86 C 681.36 101.46 672.58 117.51 665.85 133.79 C 661.09 146.29 657.08 159.09 654.05 172.12 C 652.11 182.76 649.74 193.34 648.45 204.08 C 646.27 227.61 644.37 251.33 646.44 274.94 C 647.49 295.33 650.28 315.63 654.76 335.55 C 659.55 354.83 665.99 373.89 675.87 391.19 C 682.74 402.90 691.61 413.89 703.55 420.71 C 696.31 420.11 690.13 415.73 684.95 410.95 C 672.50 399.53 664.35 384.30 658.04 368.83 C 643.62 333.77 639.12 295.63 637.58 258.04 C 637.42 242.24 638.16 226.44 639.71 210.71 C 640.53 196.41 643.74 182.40 646.45 168.38 C 650.98 150.44 656.45 132.56 665.12 116.13 C 671.44 104.65 679.10 93.51 689.76 85.66 Z" />
<path fill="#426b8b" d=" M 81.07 108.11 C 95.47 106.13 109.90 104.38 124.22 101.90 C 109.48 112.21 93.72 120.92 78.36 130.26 C 74.68 132.41 71.15 134.84 67.26 136.61 C 66.85 136.23 66.02 135.46 65.60 135.07 C 79.09 127.11 92.22 118.52 106.00 111.05 C 108.60 109.71 111.04 108.09 113.33 106.28 C 107.45 106.54 101.69 107.82 95.87 108.53 C 83.35 110.05 70.85 111.75 58.37 113.59 C 58.31 112.72 58.24 111.84 58.17 110.97 C 65.85 110.40 73.43 109.01 81.07 108.11 Z" />
<path fill="#496e8e" d=" M 130.08 138.94 C 135.02 138.45 139.95 137.59 144.93 137.61 C 145.39 138.02 146.30 138.85 146.75 139.26 C 139.94 140.83 132.90 140.72 126.02 141.86 C 118.06 143.19 109.96 143.08 101.99 144.21 C 95.67 145.04 89.35 145.78 83.00 146.24 C 78.22 146.52 73.39 147.94 68.64 146.65 C 71.22 146.04 73.76 145.30 76.32 144.61 C 94.20 142.38 112.16 140.86 130.08 138.94 Z" />
<path fill="#ffffff" d=" M 139.04 145.71 C 142.29 144.60 145.38 143.03 148.72 142.21 C 149.86 144.41 150.64 146.78 151.49 149.11 C 148.20 150.25 144.94 151.49 141.74 152.85 C 140.73 150.51 139.84 148.12 139.04 145.71 Z" />
<path fill="#ffffff" d=" M 124.98 150.94 C 126.61 150.28 128.34 149.97 129.99 149.39 C 130.59 151.75 131.46 154.04 132.04 156.41 C 115.36 162.83 98.43 168.64 81.91 175.47 C 80.90 173.16 79.83 170.85 79.24 168.40 C 94.38 162.33 109.80 156.93 124.98 150.94 Z" />
<path fill="#ffffff" d=" M 86.06 185.37 C 102.79 179.05 119.54 172.78 136.24 166.38 C 137.12 168.48 138.01 170.57 138.86 172.69 C 136.81 173.42 134.75 174.11 132.73 174.90 C 134.89 177.14 138.62 175.92 140.88 178.12 C 144.43 180.68 143.94 185.59 143.49 189.42 C 140.53 189.65 137.58 189.94 134.63 190.31 C 135.14 186.57 134.56 182.13 130.56 180.58 C 125.51 179.40 120.18 180.53 115.41 182.38 C 106.57 185.65 97.74 188.99 88.91 192.29 C 86.84 190.93 86.98 187.58 86.06 185.37 Z" />
<path fill="#ffffff" d=" M 118.32 201.13 C 125.77 198.29 134.21 195.94 142.02 198.80 C 148.98 201.02 154.41 207.62 154.79 214.98 C 155.37 220.59 152.70 226.02 148.93 230.01 C 144.27 234.62 138.19 237.43 132.08 239.57 C 128.26 229.13 124.42 218.69 120.28 208.37 C 115.71 211.14 110.44 213.86 108.32 219.11 C 106.04 223.84 107.84 229.96 112.25 232.78 C 115.28 234.78 119.07 234.61 122.55 234.72 C 123.17 237.29 123.63 239.90 123.89 242.54 C 119.02 242.65 113.85 242.87 109.50 240.28 C 100.99 235.72 97.10 224.01 101.33 215.29 C 104.55 208.34 111.43 203.91 118.32 201.13 Z" />
<path fill="#547896" d=" M 127.53 206.56 C 131.46 205.07 135.95 204.69 139.95 206.13 C 145.20 208.08 149.08 214.41 146.71 219.87 C 145.14 224.58 140.68 227.25 136.70 229.73 C 133.37 222.11 131.08 214.08 127.53 206.56 Z" />
<path fill="#ffffff" d=" M 137.02 245.04 C 144.20 242.49 152.30 240.22 159.75 243.05 C 169.58 246.17 175.23 258.90 170.04 268.04 C 167.89 271.47 164.90 274.78 160.96 276.09 C 159.53 274.23 158.34 272.22 157.18 270.20 C 160.43 267.93 163.88 265.05 164.50 260.89 C 164.96 255.40 160.15 250.64 154.98 249.71 C 149.13 248.70 143.34 250.81 138.00 252.98 C 132.97 255.08 127.78 258.04 125.25 263.10 C 122.95 267.55 124.83 273.41 129.08 275.95 C 132.75 278.39 137.35 277.25 141.45 277.05 C 142.08 279.45 142.57 281.89 142.96 284.34 C 137.36 284.67 131.23 285.75 126.09 282.81 C 118.03 278.98 114.23 268.14 118.25 260.14 C 121.68 252.43 129.43 247.89 137.02 245.04 Z" />
<path fill="#ffffff" d=" M 189.69 273.31 C 192.15 272.26 194.70 271.48 197.29 270.85 C 198.10 273.06 198.96 275.24 199.81 277.44 C 176.60 286.44 153.18 294.92 129.93 303.83 C 129.12 301.47 128.26 299.13 127.37 296.81 C 148.11 288.88 168.97 281.28 189.69 273.31 Z" />
<path fill="#404040" d=" M 302.92 293.99 C 304.86 287.54 306.21 280.91 308.61 274.61 C 310.21 279.20 311.51 283.89 313.01 288.51 C 297.46 343.11 282.18 397.78 266.59 452.36 C 263.48 460.82 260.94 470.67 252.96 475.93 C 249.25 477.90 245.35 480.21 241.00 480.01 C 226.32 479.95 211.65 479.98 196.98 479.99 C 191.63 479.93 186.08 480.52 181.00 478.44 C 198.99 477.31 217.05 478.36 235.06 477.88 C 241.74 476.65 248.42 472.97 251.82 466.89 C 255.39 460.58 257.67 453.65 259.74 446.74 C 274.17 395.84 288.49 344.90 302.92 293.99 Z" />
<path fill="#ffffff" d=" M 165.19 301.13 C 171.21 299.84 177.97 299.47 183.47 302.69 C 189.52 305.68 193.17 312.35 193.49 318.95 C 193.55 327.40 187.79 334.86 180.56 338.70 C 171.62 343.44 160.98 346.64 150.94 343.87 C 140.49 340.65 135.10 327.56 139.95 317.83 C 144.68 308.20 155.43 303.81 165.19 301.13 Z" />
<path fill="#547896" d=" M 165.17 309.12 C 168.64 308.12 172.31 308.00 175.89 308.33 C 181.58 308.78 186.58 314.25 185.67 320.08 C 185.10 326.94 178.72 331.31 172.94 333.87 C 166.49 336.50 158.93 339.02 152.17 335.95 C 146.97 333.87 143.97 327.24 146.54 322.10 C 149.71 314.62 157.97 311.42 165.17 309.12 Z" />
<path fill="#ffffff" d=" M 167.78 352.94 C 178.90 348.64 190.08 344.53 201.20 340.23 C 202.12 342.57 203.04 344.91 203.94 347.26 C 193.11 351.41 182.24 355.46 171.41 359.58 C 168.13 360.93 164.50 362.54 162.86 365.91 C 161.21 370.06 162.87 375.02 166.55 377.52 C 170.64 380.82 176.35 379.69 180.95 378.20 C 191.03 374.52 201.03 370.58 211.11 366.90 C 211.85 369.23 213.69 371.47 213.42 374.00 C 200.96 378.92 188.34 383.47 175.80 388.21 C 171.53 389.68 167.43 391.66 163.01 392.67 C 162.38 390.61 161.71 388.57 161.06 386.53 C 163.26 385.93 165.36 385.09 167.36 384.00 C 163.82 382.70 159.97 381.52 157.52 378.45 C 154.19 374.27 152.49 368.20 154.91 363.18 C 157.06 357.73 162.69 355.01 167.78 352.94 Z" />
<path fill="#ffffff" d=" M 193.82 390.93 C 201.09 388.58 209.39 386.97 216.64 390.23 C 222.14 392.44 226.16 398.07 226.13 404.05 C 226.09 407.29 224.39 410.14 222.99 412.96 C 231.27 410.06 239.34 406.61 247.68 403.89 C 248.57 406.21 249.37 408.57 249.99 410.98 C 231.02 417.79 212.27 425.22 193.36 432.21 C 188.97 433.69 184.74 436.03 179.99 436.06 C 179.37 434.21 178.71 432.37 178.06 430.54 C 180.04 429.73 182.04 428.96 184.04 428.19 C 181.10 427.29 177.93 426.55 175.74 424.23 C 171.30 420.12 170.43 413.19 172.90 407.80 C 176.42 398.96 185.26 393.92 193.82 390.93 Z" />
<path fill="#547896" d=" M 200.62 396.87 C 206.07 395.38 212.98 395.34 216.96 400.00 C 219.29 402.31 219.01 405.95 218.43 408.91 C 216.42 414.17 211.42 417.44 206.50 419.68 C 201.05 422.23 195.09 424.39 188.98 423.68 C 184.89 423.28 180.77 420.67 179.53 416.62 C 178.52 412.03 181.03 407.42 184.46 404.52 C 189.09 400.65 194.87 398.47 200.62 396.87 Z" />
<path fill="#404040" d=" M 760.31 408.19 C 762.02 407.13 764.82 405.37 766.45 407.49 C 771.03 414.27 775.40 421.20 779.90 428.03 C 781.53 430.34 782.65 433.91 780.46 436.24 C 764.38 449.73 745.70 459.87 726.07 467.17 C 711.19 472.61 695.64 475.86 680.03 478.19 C 665.71 479.47 651.33 478.88 636.98 478.98 C 625.93 478.60 614.85 478.07 603.90 476.53 C 612.25 475.52 620.59 477.18 628.96 476.95 C 641.61 476.74 654.27 477.40 666.91 476.67 C 702.57 473.42 737.66 460.95 766.34 439.32 C 768.79 437.43 771.55 435.70 773.21 433.02 C 774.54 430.46 772.85 427.71 771.60 425.50 C 767.86 419.72 764.10 413.94 760.31 408.19 Z" />
<path fill="#404040" d=" M 473.55 410.50 C 475.73 412.71 477.89 414.96 480.07 417.18 C 476.72 428.42 473.39 439.66 470.07 450.91 C 468.68 456.45 465.90 461.48 463.47 466.59 C 458.88 472.70 452.94 478.74 445.06 479.95 C 429.05 480.04 413.03 479.93 397.02 480.00 C 394.06 480.11 391.11 479.65 388.38 478.47 C 404.57 477.29 420.83 478.34 437.04 477.91 C 442.21 477.22 446.90 474.26 450.47 470.54 C 457.86 463.32 460.68 453.00 463.53 443.40 C 467.08 432.50 470.09 421.43 473.55 410.50 Z" />
</svg>
