<?xml version="1.0" encoding="utf-8"?>
<!-- Generator: Adobe Illustrator 16.0.0, SVG Export Plug-In . SVG Version: 6.00 Build 0)  -->
<!DOCTYPE svg PUBLIC "-//W3C//DTD SVG 1.1//EN" "http://www.w3.org/Graphics/SVG/1.1/DTD/svg11.dtd">
<svg version="1.1" xmlns="http://www.w3.org/2000/svg" xmlns:xlink="http://www.w3.org/1999/xlink" x="0px" y="0px" width="800px"
	 height="800px" viewBox="0 0 100 100" enable-background="new 0 0 100 100" xml:space="preserve">
<g id="Layer_8">
</g>
<g id="Layer_6">
	<g id="XMLID_4_">
		<g>
			<polygon fill="#D1D3D4" points="40.54,56.15 41.76,60.13 22.34,65.75 20.89,61.64 			"/>
		</g>
		<g>
			<line fill="none" stroke="#000000" stroke-miterlimit="10" x1="20.89" y1="61.64" x2="40.54" y2="56.15"/>
			<line fill="none" stroke="#000000" stroke-miterlimit="10" x1="22.34" y1="65.75" x2="41.76" y2="60.13"/>
			<line fill="none" stroke="#000000" stroke-miterlimit="10" x1="40.54" y1="56.15" x2="41.76" y2="60.13"/>
			<line fill="none" stroke="#000000" stroke-miterlimit="10" x1="20.89" y1="61.64" x2="22.34" y2="65.75"/>
		</g>
	</g>
</g>
<g id="Layer_1">
	<ellipse fill="#FFFFFF" stroke="#000000" stroke-miterlimit="10" cx="54.345" cy="14.072" rx="8.46" ry="8.689"/>
	<ellipse fill="#FFFFFF" stroke="#000000" stroke-miterlimit="10" cx="78.357" cy="54.607" rx="8.461" ry="8.691"/>
	<ellipse fill="#FFFFFF" stroke="#000000" stroke-miterlimit="10" cx="70.583" cy="82.809" rx="8.46" ry="8.69"/>
	<ellipse fill="#FFFFFF" stroke="#000000" stroke-miterlimit="10" cx="13.875" cy="66.498" rx="8.46" ry="8.691"/>
</g>
<g id="Layer_7">
	<g id="XMLID_5_">
		<g>
			<path fill="#D1D3D4" d="M75.5,54.67c0,1.264-0.72,2.29-1.96,2.29h-7.5v-4.13l7.5-0.026C74.46,52.83,75.5,53.732,75.5,54.67z"/>
		</g>
		<g>
			<line fill="none" stroke="#000000" stroke-miterlimit="10" x1="66.04" y1="52.83" x2="73.54" y2="52.804"/>
			<line fill="none" stroke="#000000" stroke-miterlimit="10" x1="66.04" y1="56.96" x2="73.54" y2="56.96"/>
			<line fill="none" stroke="#000000" stroke-miterlimit="10" x1="66.04" y1="52.83" x2="66.04" y2="56.96"/>
			<path fill="none" stroke="#000000" stroke-miterlimit="10" d="M73.54,52.804c0.92,0.026,1.96,0.929,1.96,1.866"/>
			<path fill="none" stroke="#000000" stroke-miterlimit="10" d="M75.5,54.67c0,1.264-0.72,2.29-1.96,2.29"/>
		</g>
	</g>
</g>
<g id="Layer_3">
	<ellipse fill="#39B54A" stroke="#000000" stroke-miterlimit="10" cx="54.346" cy="54.363" rx="13.804" ry="14.18"/>
</g>
<g id="Layer_4">
	<g id="XMLID_1_">
		<g>
			<path fill="#D1D3D4" d="M54.35,41.88c-1.159,0-2.1-0.52-2.1-1.69l0.06-17.69h4.07v17.69C56.38,41.25,55.81,41.88,54.35,41.88z"/>
		</g>
		<g>
			<line fill="none" stroke="#000000" stroke-miterlimit="10" x1="52.31" y1="22.5" x2="52.25" y2="40.19"/>
			<line fill="none" stroke="#000000" stroke-miterlimit="10" x1="56.38" y1="22.5" x2="56.38" y2="40.19"/>
			<path fill="none" stroke="#000000" stroke-miterlimit="10" d="M52.25,40.19c0,1.17,0.94,1.69,2.1,1.69"/>
			<path fill="none" stroke="#000000" stroke-miterlimit="10" d="M54.35,41.88c1.46,0,2.03-0.63,2.03-1.69"/>
			<line fill="none" stroke="#000000" stroke-miterlimit="10" x1="52.31" y1="22.5" x2="56.38" y2="22.5"/>
		</g>
	</g>
</g>
<g id="Layer_2">
	<g id="XMLID_2_">
		<g>
			<path fill="#D1D3D4" d="M61.35,62.75l6.69,11.77l-3.28,1.99L57.94,64.94c-0.32-0.521,0.31-2.021,1.06-2.5
				C59.6,62.06,60.96,62.05,61.35,62.75z"/>
		</g>
		<g>
			<line fill="none" stroke="#000000" stroke-miterlimit="10" x1="68.04" y1="74.52" x2="61.35" y2="62.75"/>
			<path fill="none" stroke="#000000" stroke-miterlimit="10" d="M57.94,64.94c-0.32-0.521,0.31-2.021,1.06-2.5"/>
			<path fill="none" stroke="#000000" stroke-miterlimit="10" d="M59,62.44c0.6-0.381,1.96-0.391,2.35,0.31"/>
			<line fill="none" stroke="#000000" stroke-miterlimit="10" x1="64.76" y1="76.51" x2="57.94" y2="64.94"/>
			<line fill="none" stroke="#000000" stroke-miterlimit="10" x1="64.76" y1="76.51" x2="68.04" y2="74.52"/>
		</g>
	</g>
</g>
</svg>
